<svg id="Layer_1" data-name="Layer 1" xmlns="http://www.w3.org/2000/svg" viewBox="0 0 1200.93 822.39"><defs><style>.cls-1,.cls-9{fill:none;}.cls-1,.cls-52,.cls-56{stroke:#000;}.cls-1,.cls-2,.cls-24,.cls-25,.cls-26,.cls-27,.cls-28,.cls-29,.cls-3,.cls-30,.cls-31,.cls-32,.cls-33,.cls-34,.cls-35,.cls-36,.cls-37,.cls-38,.cls-39,.cls-40,.cls-41,.cls-42,.cls-43,.cls-52,.cls-56,.cls-9{stroke-miterlimit:10;}.cls-1{stroke-width:1.3px;}.cls-2{fill:#9ac0ef;stroke-width:2.8px;}.cls-2,.cls-3{stroke:#288eb2;}.cls-3,.cls-50{fill:#fff;}.cls-3{stroke-width:1.22px;}.cls-4{fill:#006837;}.cls-5{fill:#009245;}.cls-6{fill:#8cc63f;}.cls-7{fill:#f7931e;}.cls-8{opacity:0.5;}.cls-9{stroke:#b2671b;stroke-width:0.9px;}.cls-10{fill:#c1272d;}.cls-11{fill:#c46068;}.cls-12{fill:#736357;}.cls-13{fill:#ade555;}.cls-14{fill:#637f91;}.cls-15{fill:#534741;}.cls-16{fill:#754c24;}.cls-17{fill:#efad6c;}.cls-18,.cls-25,.cls-26,.cls-27,.cls-28,.cls-29,.cls-30,.cls-31,.cls-32,.cls-33,.cls-34,.cls-35,.cls-36,.cls-37,.cls-38,.cls-39,.cls-40,.cls-41,.cls-42,.cls-43{fill:#fbb03b;}.cls-19{fill:#f9a02b;}.cls-20{fill:#ce6905;}.cls-21{fill:#ba5a0c;}.cls-22{fill:#b75c09;}.cls-23{fill:#99470a;}.cls-24{fill:#dd8d57;stroke:#fbb03b;stroke-width:0.6px;}.cls-25,.cls-26,.cls-27,.cls-28,.cls-29,.cls-30,.cls-31,.cls-32,.cls-33,.cls-34,.cls-35,.cls-36,.cls-37,.cls-38,.cls-39,.cls-40,.cls-41,.cls-42,.cls-43{stroke:#dd8d57;}.cls-25{stroke-width:0.62px;}.cls-26{stroke-width:0.63px;}.cls-27{stroke-width:0.64px;}.cls-28{stroke-width:0.65px;}.cls-29{stroke-width:0.65px;}.cls-30{stroke-width:0.65px;}.cls-31{stroke-width:0.65px;}.cls-32{stroke-width:0.65px;}.cls-33{stroke-width:0.61px;}.cls-34{stroke-width:0.63px;}.cls-35{stroke-width:0.64px;}.cls-36{stroke-width:0.64px;}.cls-37{stroke-width:0.64px;}.cls-38{stroke-width:0.65px;}.cls-39{stroke-width:0.65px;}.cls-40{stroke-width:0.65px;}.cls-41{stroke-width:0.65px;}.cls-42{stroke-width:0.65px;}.cls-43{stroke-width:0.65px;}.cls-44,.cls-45,.cls-46{fill:#427773;}.cls-44,.cls-52,.cls-56{opacity:0.3;}.cls-45{opacity:0.45;}.cls-47{fill:#7a1c23;}.cls-48{fill:#c69c6d;}.cls-49{fill:#a67c52;}.cls-51{fill:#d4145a;}.cls-52,.cls-56{fill:#6abedb;}.cls-52{stroke-width:0.4px;}.cls-53,.cls-54{fill:#b3b3b3;}.cls-54{opacity:0.7;}.cls-55{fill:#662d91;}.cls-56{stroke-width:0.4px;}.cls-57{fill:#d8c4ad;}.cls-58{fill:#4a7f62;}</style></defs><rect class="cls-1" x="123.72" y="66.52" width="936" height="657"/><rect class="cls-2" x="151.7" y="476.93" width="441.04" height="221.32"/><rect class="cls-2" x="592.74" y="476.93" width="441.04" height="221.32"/><rect class="cls-3" x="304.08" y="501.5" width="125.37" height="26.79" rx="11.8"/><rect class="cls-3" x="750.57" y="501.5" width="125.37" height="26.79" rx="11.8"/><path class="cls-4" d="M151.13,667.7s6.71-55.38,51.3-38.9c0,0,15.27-62,63.52-21.75,0,0,55.5-52.93,73.29,15.82,0,0,71.46-32.31,66,41.53,0,0,67.18-26.37,57.41,32.31l-311,1.55"/><rect class="cls-2" x="151.7" y="91.78" width="882.08" height="166.76"/><rect class="cls-2" x="150.41" y="284.36" width="882.08" height="166.76"/><path class="cls-5" d="M428.1,587.78c-2.84-.91-6.34-2.74-7.86-6.36a.6.6,0,0,1,.95-.68,90.71,90.71,0,0,0,7.43,6A.59.59,0,0,1,428.1,587.78Z"/><path class="cls-5" d="M429.64,651s85.85-35.76,106.82-32.33C555.24,621.77,437.24,653,429.64,651Z"/><path class="cls-6" d="M429.26,650.41s94.33-26.79,125.6-14.82S444.14,656,429.26,650.41Z"/><path class="cls-5" d="M424,650.71s80.46-10.84,97.64-3.64C537,653.51,430.09,653.91,424,650.71Z"/><path class="cls-6" d="M427.42,654.17s54.41-45.54,78.09-45.8S438.68,654,427.42,654.17Z"/><path class="cls-7" d="M426.71,668.31l-.09-.15a14,14,0,0,0,8.83-17.48,17.29,17.29,0,0,0-19.71-11.81,14.91,14.91,0,0,0-4.68,1.81c-1.73.53-12.54,3.88-27.92,8.71-14.32,4.5-27.57,6.69-45.25,14.39-40.12,17.47-91.13,30.15-93.88,33.68-2.93,3.76,79.61-21.66,131.38-22.07C418.81,675.05,426.71,668.31,426.71,668.31Z"/><g class="cls-8"><path class="cls-9" d="M365.75,654.28s-.47,12.15,7.61,21.14"/><path class="cls-9" d="M377.63,651s2.05,10.61,11,24"/><path class="cls-9" d="M392.33,646.51s2.5,19.18,14.18,27.09"/><path class="cls-9" d="M403.31,643.08s5.55,16.83,15.81,28.2"/><path class="cls-9" d="M350.07,659a69.33,69.33,0,0,0,6.48,17.41"/><path class="cls-9" d="M334,665.43a40.78,40.78,0,0,0,4.89,13.15"/><path class="cls-9" d="M319.07,671.39a25.29,25.29,0,0,0,3.49,9.85"/><path class="cls-9" d="M304,676.84s-.37,2.24,3.26,7.3"/><path class="cls-9" d="M289.05,681.92s.76,5,4.21,4.87"/><path class="cls-9" d="M270.48,687.7s.65,2.93,2.37,4"/></g><path class="cls-10" d="M431.25,576.19s37.93-38.18,81.25,6.35S541,656.68,541,656.68s-4.66,68.54-86.73,29.61S415.37,600.13,431.25,576.19Z"/><path class="cls-11" d="M424.23,651.93S458.72,685.3,490.41,685,424.23,651.93,424.23,651.93Z"/><path class="cls-5" d="M419.68,605.67c1.2-7.55,6-24.17,25.34-32a.54.54,0,0,1,.6.86c-4.88,5.38-20.17,22.54-24.94,31.46A.54.54,0,0,1,419.68,605.67Z"/><path class="cls-5" d="M427.17,586.65a29.44,29.44,0,0,1,4.45-23.84,1,1,0,0,1,1.78.78c-1.36,5.76-3.63,16-4.28,22.93A1,1,0,0,1,427.17,586.65Z"/><path class="cls-5" d="M429.74,588.24a20.2,20.2,0,0,1-16.77-4,.61.61,0,0,1,.54-1.08A135.36,135.36,0,0,0,429.7,587,.61.61,0,0,1,429.74,588.24Z"/><path class="cls-5" d="M453,679.29s90.44-21.67,110.6-14.95C581.64,670.35,460.18,682.45,453,679.29Z"/><path class="cls-6" d="M452.72,678.61s97.38-11.46,126.35,5.32S466.51,686.53,452.72,678.61Z"/><path class="cls-5" d="M447.48,678.07s81.16,2.09,97,11.92C558.62,698.79,453,682.2,447.48,678.07Z"/><path class="cls-6" d="M450.3,682s60.95-36.32,84.38-32.81S461.44,683.65,450.3,682Z"/><path class="cls-7" d="M447.35,695.88l-.06-.16a14,14,0,0,0,11.49-15.86,17.27,17.27,0,0,0-17.58-14.79,14.82,14.82,0,0,0-4.91,1c-1.79.25-13,1.84-29,4.16-14.85,2.17-28.29,2.23-47,7-42.38,10.88-94.75,15.29-98,18.34-3.5,3.25,82-8.73,133.2-.91C438.48,701.28,447.35,695.88,447.35,695.88Z"/><g class="cls-8"><path class="cls-9" d="M389.39,672.34s-2.39,11.92,4.16,22.08"/><path class="cls-9" d="M401.64,671s.33,10.8,7.06,25.47"/><path class="cls-9" d="M416.87,668.89s-.58,19.34,9.7,29"/><path class="cls-9" d="M428.25,667.25s2.82,17.49,11.13,30.35"/><path class="cls-9" d="M373.16,674.54a69,69,0,0,0,3.63,18.22"/><path class="cls-9" d="M356.3,678.31A40.59,40.59,0,0,0,359,692.07"/><path class="cls-9" d="M340.59,681.82a25.15,25.15,0,0,0,1.88,10.28"/><path class="cls-9" d="M324.88,684.82s-.72,2.14,2.06,7.72"/><path class="cls-9" d="M309.27,687.45s0,5.06,3.39,5.47"/><path class="cls-9" d="M290,690.2s.17,3,1.69,4.35"/></g><path class="cls-12" d="M641.6,604.39s-2.91-33.12,3.5-32.31,5.39,2.84,5.39,2.84l-4.75,28.5Z"/><path class="cls-6" d="M642.31,696.69s-41.06-3.86-47.82-53.46c-7.14-52.33,49.26-44.45,49.26-44.45s48-47.33,57.72,31.85C710.51,704.6,665.82,698.28,642.31,696.69Z"/><path class="cls-13" d="M607.43,640.72s-.25,28.83,24,39.34C655.32,690.39,607.43,640.72,607.43,640.72Z"/><path class="cls-14" d="M670.63,329.94a75.41,75.41,0,0,0,4.72,29.32l24.37,63.36c6.34,16.5,18.08,26.66,30.77,26.66h48.74c12.7,0,24.43-10.16,30.78-26.66l24.37-63.36a74.93,74.93,0,0,0,4.76-26.66"/><rect class="cls-14" x="660.97" y="321.45" width="185.9" height="21.49" rx="8.7"/><path class="cls-15" d="M987,609.13s11.32-27,16-23.71,3,4.42,3,4.42l-15.38,20.23Z"/><path class="cls-10" d="M952.31,681s-33-16.21-17.91-57.58c15.91-43.64,59.08-20.2,59.08-20.2s54.28-11.31,29.34,54.26C999.52,718.74,970,691.86,952.31,681Z"/><path class="cls-11" d="M1011.41,650.91s.59,25.35-20.63,34.9C969.93,695.2,1011.41,650.91,1011.41,650.91Z"/><path class="cls-12" d="M844.79,604.39s2.92-33.12-3.49-32.31-5.39,2.84-5.39,2.84l4.74,28.5Z"/><path class="cls-6" d="M844.09,696.69s41.06-3.86,47.82-53.46c7.13-52.33-49.26-44.45-49.26-44.45s-48.06-47.33-57.72,31.85C775.89,704.6,820.58,698.28,844.09,696.69Z"/><path class="cls-13" d="M879,640.72s.26,28.83-24,39.34C831.08,690.39,879,640.72,879,640.72Z"/><path class="cls-15" d="M708.24,605.15s.66-32.53,6.81-31.06,4.94,3.33,4.94,3.33l-7.62,27.22Z"/><path class="cls-10" d="M701.78,693.69s-40.75-3.26-42.1-52.23c-1.42-51.66,52.84-45.09,52.84-45.09S764,562.44,765.1,640.49C766.08,713.4,724.49,697.72,701.78,693.69Z"/><path class="cls-11" d="M750.61,638.37s11,26-7.05,44.55C725.84,701.17,750.61,638.37,750.61,638.37Z"/><path class="cls-7" d="M922.94,607.52s16.76,3.27,26.3,16.34c7.81,10.69,17.26,22,13,39.1-9.32,37.74-43.15,33.46-43.15,33.46S879,707.54,865.25,666.36c-11-32.74,2.24-46.9,22.19-55.1C892.58,609.15,919.57,604.66,922.94,607.52Z"/><path class="cls-16" d="M900,611s4.52-2.55,7.4-1S899.3,614.17,900,611Z"/><path class="cls-17" d="M946.81,636.61s-4.59-18.26-21.67-20.9C908.36,613.11,946.81,636.61,946.81,636.61Z"/><path class="cls-7" d="M787.43,606.25s16.77,3.26,26.31,16.33c7.8,10.69,17.25,22,13,39.1-9.32,37.74-43.15,33.46-43.15,33.46s-40.12,11.12-53.88-30c-11-32.75,2.24-46.91,22.19-55.11C757.08,607.87,784.06,603.38,787.43,606.25Z"/><path class="cls-16" d="M764.47,609.72s4.52-2.54,7.4-1S763.79,612.89,764.47,609.72Z"/><path class="cls-17" d="M811.3,635.33s-4.59-18.26-21.66-20.9C772.86,611.83,811.3,635.33,811.3,635.33Z"/><rect class="cls-18" x="760.04" y="339.12" width="185.57" height="113.74"/><polygon class="cls-19" points="760.04 339.12 910.25 303.04 945.61 339.12 760.04 339.12"/><ellipse class="cls-20" cx="784.44" cy="416.95" rx="7.62" ry="6.21"/><ellipse class="cls-20" cx="833.41" cy="398.01" rx="6.73" ry="5.28"/><ellipse class="cls-21" cx="833.41" cy="399.57" rx="4.57" ry="3.73"/><ellipse class="cls-21" cx="782.42" cy="417.61" rx="5.6" ry="4.56"/><ellipse class="cls-20" cx="926.64" cy="349.59" rx="6.46" ry="5.26"/><ellipse class="cls-21" cx="927.78" cy="350.41" rx="3.87" ry="4.75" transform="translate(328.67 1140.74) rotate(-73.53)"/><ellipse class="cls-20" cx="795.14" cy="351.09" rx="5.26" ry="6.46" transform="translate(-29.74 625.12) rotate(-42.2)"/><ellipse class="cls-21" cx="795.29" cy="352.49" rx="3.87" ry="4.75" transform="translate(-74.17 380.16) rotate(-25.73)"/><ellipse class="cls-20" cx="855.13" cy="357.25" rx="5.28" ry="6.73" transform="translate(108.96 906.9) rotate(-59.05)"/><ellipse class="cls-21" cx="855.13" cy="357.79" rx="3.73" ry="4.57" transform="translate(108.5 907.16) rotate(-59.05)"/><ellipse class="cls-22" cx="894.87" cy="322.39" rx="5.28" ry="6.73" transform="translate(158.16 924.04) rotate(-59.05)"/><ellipse class="cls-23" cx="894.07" cy="323.72" rx="3.73" ry="4.57" transform="translate(156.63 924) rotate(-59.05)"/><ellipse class="cls-20" cx="916.61" cy="401.94" rx="5.26" ry="6.46" transform="translate(-32.41 719.89) rotate(-42.2)"/><ellipse class="cls-21" cx="916.77" cy="403.34" rx="3.87" ry="4.75" transform="translate(-84.21 437.93) rotate(-25.73)"/><ellipse class="cls-22" cx="853.37" cy="328.4" rx="6.73" ry="5.28" transform="translate(-35.62 542.4) rotate(-34.58)"/><ellipse class="cls-23" cx="852.82" cy="327.61" rx="4.57" ry="3.73" transform="translate(-35.26 541.95) rotate(-34.58)"/><ellipse class="cls-20" cx="871.7" cy="432.4" rx="5.28" ry="6.73" transform="translate(-64.51 697.62) rotate(-42.2)"/><ellipse class="cls-21" cx="873.39" cy="433.45" rx="3.73" ry="4.57" transform="translate(-64.78 699.02) rotate(-42.2)"/><path class="cls-24" d="M367,311.82s37.54-.2,70.85,1.09C478,314.46,520.56,323.1,525,324.8c8.12,3.13,13.4,11.25,12.59,16.12s-1.1,5.91-4.35,14-4.81,22.55-.75,29.05,14.85,43.84,3.07,50.75-32.9,9.34-32.9,9.34l-48.34,3.25-87.73,2.44c-54,1.5-109.32,1.74-163.22-2.56a7,7,0,0,1-2.23-.42c-5.12-2.15-8.69-16.44-9.93-21.28-2.29-9-2.84-23.51.83-32.6,3.61-8.92,7-19.35,4.8-29.16-1.15-5.11-3.24-8-6.3-12.15-3.22-4.38-3.45-6.44-2.17-12.16s3.9-9.18,10.6-11.83c3.33-1.32,9.82-2.37,13.36-1.79.81.13,1.63.23,2.46.29,7.27.6,15.53-3.82,22.75-4a373.63,373.63,0,0,1,61.08-9C322.76,311.68,345.48,312.06,367,311.82Z"/><path class="cls-25" d="M223.61,326.31l4.47-1.34s-2.7,60.76-2.5,64.47a43.41,43.41,0,0,1-.3,8.19l.52,9.64-.51,10.27-4.59,30.87-1,0L221.39,437l1.71-18.87.64-13.48-.44-13.92Z"/><path class="cls-26" d="M240,323l4.48-1.38s-2.65,62.73-2.43,66.57a46.16,46.16,0,0,1-.3,8.45l.53,10-.5,10.6-4.56,31.87-1,0,1.7-11.78,1.69-19.48.62-13.92-.45-14.37Z"/><path class="cls-27" d="M254.19,320.25l4.48-1.41s-2.59,64.5-2.37,68.44A49.55,49.55,0,0,1,256,396l.54,10.24-.5,10.89-4.53,32.77-1,0,1.69-12.12,1.67-20,.61-14.31L254,388.61Z"/><path class="cls-28" d="M268.76,316.88l4.47-1.46s-2.52,66.57-2.3,70.64a52.11,52.11,0,0,1-.28,9l.55,10.57-.48,11.25-4.5,33.81-1,0,1.68-12.5,1.65-20.67.6-14.77-.48-15.25Z"/><path class="cls-29" d="M286.72,315l3.43-1.12a.5.5,0,0,1,.66.5c-.27,7.23-2.47,66.46-2.26,70.3a54.54,54.54,0,0,1-.27,9,.28.28,0,0,0,0,.09l.55,10.56v.05l-.48,11.25v.05l-4.43,33.52a.51.51,0,0,1-.52.44h0a.51.51,0,0,1-.48-.58l1.6-12v0l1.65-20.77.59-14.83v0l-.48-15.32.1-70.57A.5.5,0,0,1,286.72,315Z"/><path class="cls-30" d="M303.58,313.54l1.6-.53a1.51,1.51,0,0,1,2,1.49c-.43,11.54-2.4,65.35-2.21,69a53.61,53.61,0,0,1-.27,9l.55,10.65-.48,11.33-4.49,34.07-1,0,1.68-12.6,1.64-20.83.59-14.88-.48-15.36.1-70.23A1.17,1.17,0,0,1,303.58,313.54Z"/><path class="cls-31" d="M317.12,313.67l4.47-1.46s-2.52,66.68-2.3,70.76a52.35,52.35,0,0,1-.28,9l.55,10.58-.48,11.27-4.5,33.87-1,0,1.67-12.53,1.65-20.71.6-14.79L317,384.34Z"/><path class="cls-32" d="M331.77,313.35l4.47-1.47S333.73,379,334,383.11a52.37,52.37,0,0,1-.27,9l.55,10.66-.48,11.34-4.49,34.09-1,0,1.67-12.6,1.64-20.85.59-14.89-.48-15.38Z"/><path class="cls-33" d="M505.69,320.9l-4.52-1.18s4.61,59.8,4.52,63.47a41.76,41.76,0,0,0,.56,8.07l-.22,9.52.84,10.1,5.55,30.29,1-.07-2.06-11.2-2.3-18.55L508,398.09V384.36Z"/><path class="cls-34" d="M489.23,318.31l-4.52-1.25s4.61,63.37,4.52,67.25a46.79,46.79,0,0,0,.56,8.55L489.57,403l.84,10.7L496,445.74l1-.07-2.06-11.87-2.3-19.65-1.06-14.06V385.55Z"/><path class="cls-35" d="M474.92,316.69l-4.52-1.27s4.61,64.36,4.52,68.31a48.24,48.24,0,0,0,.56,8.68l-.22,10.25.84,10.87,5.55,32.59,1-.07L480.6,434l-2.3-20-1.06-14.28V385Z"/><path class="cls-36" d="M460.26,316l-4.52-1.29s4.61,65.07,4.52,69.06a49.24,49.24,0,0,0,.56,8.77l-.22,10.37.84,11,5.55,33,1-.07-2.06-12.19-2.3-20.18L462.58,400V385.07Z"/><path class="cls-37" d="M442.6,314.86l-4.52-1.3s4.61,65.8,4.52,69.84a51.49,51.49,0,0,0,.56,8.87l-.22,10.48.84,11.11,5.55,33.33,1-.07-2.07-12.33L446,414.38l-1.06-14.59V384.68Z"/><path class="cls-38" d="M426.14,313.37l-4.52-1.32s4.61,66.87,4.52,71a53.28,53.28,0,0,0,.56,9l-.22,10.64.84,11.3,5.55,33.86,1-.07-2.07-12.52-2.3-20.74-1.06-14.83V384.32Z"/><path class="cls-39" d="M411.83,313.37l-4.52-1.32s4.61,67.06,4.52,71.17a53.53,53.53,0,0,0,.56,9l-.22,10.68.84,11.33,5.55,34,1-.08-2.07-12.55-2.3-20.8-1.06-14.88V384.53Z"/><path class="cls-40" d="M397.17,313.38l-4.52-1.33s4.61,67.38,4.52,71.52a53.9,53.9,0,0,0,.56,9.08l-.22,10.73.84,11.38,5.55,34.13,1-.07-2.07-12.62-2.3-20.9-1.06-14.95V384.88Z"/><path class="cls-41" d="M346.32,313.25l1.57-.6a1.51,1.51,0,0,1,2.05,1.4c.15,11.62.84,65.85,1.22,69.52a53.81,53.81,0,0,1,.17,9.11l1.08,10.68.08,11.42-2.8,34.49h-1l1-12.75.61-21-.14-15L349,385.07l-3.39-70.65A1.2,1.2,0,0,1,346.32,313.25Z"/><path class="cls-42" d="M360.25,313.41l3.38-1.29a.51.51,0,0,1,.69.46c.08,7.22.77,66.32,1.16,70.14a53.25,53.25,0,0,1,.17,9v.09l1.06,10.49v.05l.07,11.23v0L364,447.19a.49.49,0,0,1-.5.46h0a.49.49,0,0,1-.5-.54l1-12v0l.63-20.77-.13-14.8v0l-1.23-15.23-3.34-70.3A.5.5,0,0,1,360.25,313.41Z"/><path class="cls-43" d="M374.93,313.19l3.38-1.29a.51.51,0,0,1,.69.46c.08,7.22.77,66.36,1.17,70.18a52.69,52.69,0,0,1,.16,9v.09l1.07,10.49v.05l.07,11.24v.05L378.68,447a.5.5,0,0,1-.5.46h0a.51.51,0,0,1-.51-.55l1-12v0l.64-20.78-.14-14.81v0L378,384l-3.34-70.34A.51.51,0,0,1,374.93,313.19Z"/><path class="cls-44" d="M211.38,317.18S175,325,183.08,355.28c1.4,36.23-.68,66.4,4.56,80.4s17,15.41,17,15.41l64.57,2.52s165.92-1.73,171.49-2.52,58.63-2,60.46-2.68,34.1-6.37,35.21-7.24,16-12.38,16-19.05-8.16-60.08-3.71-69.72-18.85-35.27-41.32-37.66-115.74-8.32-128.62-8.32-79.44,1.85-79.44,1.85Z"/><path class="cls-45" d="M547.39,372.36c.07.82.14,1.63.19,2.43q.52,8.41,1.48,16.8c.09.74,10.63,3.31,11.83,3.7,4.14,1.35,8.25,2.77,12.32,4.33,18.57,7.09,36.89,17.46,48.34,34.23-.67-1,.33-4.06.66-5.08a19.66,19.66,0,0,1,2.32-4.71c3.77-5.68,9.76-9.7,13.43-15.52a19.79,19.79,0,0,0,3-10.08c.17-4.22-.35-8.77,1.73-12.63l2.08,1c1.16-5.56-2.48-10.87-3.7-16.42-1.61-7.36,1.13-14.93,4.19-21.81s6.56-13.91,6.56-21.44a6.34,6.34,0,0,0-.47-2.74c-1.27-2.58-5-2.66-7.68-1.71-6.36,2.23-10.92,7.66-16,12-12.11,10.31-27.9,15-43.19,19.35l-32.88,9.43c-2.09.6-4.23.54-4.39,3A39.05,39.05,0,0,0,547.39,372.36Z"/><path class="cls-46" d="M559.67,389.7a.34.34,0,0,0-.16.65c10.86,4.11,53.61,20.5,55.63,24.82,2.31,4.95,4,8.26,4,8.26l2.64-11.23-49.2-21.13Z"/><path class="cls-46" d="M561.73,375.22a.5.5,0,0,0,.08,1c15.45.75,72.62,3.62,74.65,4.81s-2.48-13.73-3.29-16.32a.49.49,0,0,0-.51-.34c-4.49.37-45.9,3.88-48.52,5.28C582.07,370.75,568.45,373.77,561.73,375.22Z"/><path class="cls-46" d="M560.2,368.14c1.43,1.55,85.25-23.55,84.49-34.54,0,0-77.93,30.77-79.6,30.71S560.2,368.14,560.2,368.14Z"/><path class="cls-47" d="M554.28,362.7s-7.14.31-7.11,3.76,1.89,25.13,1.89,25.13a15.55,15.55,0,0,0,4.13,1.59C556.26,394,555.37,364.7,554.28,362.7Z"/><path class="cls-14" d="M597.32,170.4a56.63,56.63,0,0,0,3.53,21.95l18.24,47.41c4.75,12.35,13.53,19.95,23,19.95h36.47c9.5,0,18.28-7.6,23-19.95l18.24-47.41a56.2,56.2,0,0,0,3.56-20"/><rect class="cls-14" x="590.1" y="164.05" width="139.12" height="16.08" rx="6.51"/><rect class="cls-48" x="709.1" y="127.31" width="264.05" height="97.41" rx="25.75"/><rect class="cls-49" x="721.97" y="138.95" width="236.73" height="69.7" rx="25.66"/><ellipse class="cls-50" cx="809.54" cy="217.45" rx="24.03" ry="32.96"/><ellipse class="cls-50" cx="746" cy="216.21" rx="24.03" ry="32.96"/><ellipse class="cls-50" cx="937.44" cy="216.18" rx="24.03" ry="32.96"/><ellipse class="cls-50" cx="873.49" cy="216.21" rx="24.03" ry="32.96"/><rect class="cls-48" x="710.2" y="220.48" width="260.99" height="8.47" rx="4.23"/><path class="cls-49" d="M777,229a11.56,11.56,0,0,1-1.19,3.69l-10.7,20.46a9.71,9.71,0,0,1-8.52,5.44h-21.4a9.71,9.71,0,0,1-8.53-5.44L716,232.64a11.81,11.81,0,0,1-1.19-3.69Z"/><path class="cls-49" d="M840.66,228.87a11.81,11.81,0,0,1-1.19,3.69L828.77,253a9.72,9.72,0,0,1-8.53,5.43h-21.4a9.72,9.72,0,0,1-8.52-5.43l-10.7-20.47a11.56,11.56,0,0,1-1.19-3.69Z"/><path class="cls-49" d="M903.75,229a11.42,11.42,0,0,1-1.19,3.68l-10.7,20.47a9.72,9.72,0,0,1-8.52,5.43h-21.4a9.72,9.72,0,0,1-8.53-5.43l-10.7-20.47a11.67,11.67,0,0,1-1.19-3.68Z"/><path class="cls-49" d="M968.55,229a11.32,11.32,0,0,1-1.19,3.69l-10.7,20.46a9.72,9.72,0,0,1-8.52,5.44h-21.4a9.71,9.71,0,0,1-8.52-5.44l-10.71-20.46a11.81,11.81,0,0,1-1.19-3.69Z"/><rect class="cls-48" x="820.16" y="117.28" width="40.35" height="13.3" rx="4.1"/><path class="cls-51" d="M357.41,253.26H311.85c-12,0-21.8-7-21.8-15.67v-50.7c0-8.66-2.9-17.64,9.13-17.64,4.36.23,8.59.49,12.89,1a27.72,27.72,0,0,0,7.05-.1c2.21-.27,4.38-.71,6.61-.88,3.64-.28,7.44-.07,11.1-.07a26.61,26.61,0,0,1,4.28.39,28.26,28.26,0,0,0,3.87.69c2.17.05,4.15-.73,6.27-.92a32.57,32.57,0,0,1,7.71.43,12.7,12.7,0,0,0,2.61.26,38,38,0,0,0,5.57-1.06c.32-.05.65-.1,1-.12a30.42,30.42,0,0,1,5.64.34c8,1.08,5.44,9,5.44,17.64v50.7C379.2,246.25,369.44,253.26,357.41,253.26Z"/><rect class="cls-52" x="285.54" y="160.01" width="97.6" height="97.6" rx="21.09"/><rect class="cls-53" x="286.89" y="149.08" width="95.55" height="13.79" rx="5"/><path class="cls-54" d="M371,198c0,.45.68,1.47.84,1.94a16,16,0,0,1,.7,2.52,26.22,26.22,0,0,1,.35,5.38,209.52,209.52,0,0,1-1.88,21c-.44,3.33-1,6.82-2.65,9.78a11.63,11.63,0,0,1-5.93,4.83c-5.15,2.11-11.73,4-17.23,2.11.71.24,4.79-2.55,5.59-3a46.26,46.26,0,0,0,4.73-2.84,24,24,0,0,0,7.72-8.62c2.61-5.21,3.67-11.09,5.28-16.65A82.91,82.91,0,0,0,371,198Z"/><path class="cls-55" d="M246.74,254.09H201c-12.09,0-21.9-7.05-21.9-15.75v-51c0-8.7-2.92-17.73,9.18-17.73,4.38.24,8.62.5,13,1.05a28,28,0,0,0,7.08-.1c2.22-.27,4.4-.71,6.65-.88,3.65-.29,7.47-.07,11.14-.07a25.77,25.77,0,0,1,4.31.39,28.55,28.55,0,0,0,3.89.69c2.18,0,4.17-.74,6.3-.93a32.39,32.39,0,0,1,7.75.44,12.72,12.72,0,0,0,2.62.26,39.42,39.42,0,0,0,5.59-1.06,8.39,8.39,0,0,1,1-.13,31.64,31.64,0,0,1,5.67.34c8,1.09,5.47,9,5.47,17.73v51C268.64,247,258.83,254.09,246.74,254.09Z"/><rect class="cls-56" x="174.51" y="160.37" width="98.08" height="98.08" rx="21.2"/><rect class="cls-53" x="175.87" y="149.4" width="96.02" height="13.86" rx="5.02"/><path class="cls-54" d="M185.94,200.19c0,.46-.68,1.48-.85,1.95a15.61,15.61,0,0,0-.69,2.54,25,25,0,0,0-.35,5.4,206.4,206.4,0,0,0,1.88,21.06c.44,3.34,1,6.84,2.67,9.82a11.66,11.66,0,0,0,6,4.85c5.18,2.13,11.79,4,17.32,2.12-.71.25-4.81-2.56-5.62-3a46.64,46.64,0,0,1-4.75-2.85,24.18,24.18,0,0,1-7.76-8.66c-2.63-5.24-3.68-11.15-5.3-16.74A82.9,82.9,0,0,1,185.94,200.19Z"/><path class="cls-57" d="M406.77,127.82a67.53,67.53,0,0,0,6.47,32L446.62,229c8.7,18,24.77,29.12,42.17,29.12h66.78c17.39,0,33.46-11.1,42.16-29.12l33.39-69.18a67.35,67.35,0,0,0,6.52-29.12"/><rect class="cls-58" x="393.55" y="118.55" width="254.7" height="23.46" rx="10.65"/></svg>