<svg id="Layer_1" data-name="Layer 1" xmlns="http://www.w3.org/2000/svg" viewBox="0 0 1090.56 750.64"><defs><style>.cls-1,.cls-3,.cls-50{fill:#fff;}.cls-1,.cls-52,.cls-56{stroke:#000;}.cls-1,.cls-2,.cls-24,.cls-25,.cls-26,.cls-27,.cls-28,.cls-29,.cls-3,.cls-30,.cls-31,.cls-32,.cls-33,.cls-34,.cls-35,.cls-36,.cls-37,.cls-38,.cls-39,.cls-40,.cls-41,.cls-42,.cls-43,.cls-52,.cls-56,.cls-9{stroke-miterlimit:10;}.cls-1{stroke-width:1.3px;}.cls-2{fill:#9ac0ef;stroke-width:2.8px;}.cls-2,.cls-3{stroke:#288eb2;}.cls-3{stroke-width:1.22px;}.cls-4{fill:#006837;}.cls-5{fill:#009245;}.cls-6{fill:#8cc63f;}.cls-7{fill:#f7931e;}.cls-8{opacity:0.5;}.cls-9{fill:none;stroke:#b2671b;stroke-width:0.9px;}.cls-10{fill:#c1272d;}.cls-11{fill:#c46068;}.cls-12{fill:#736357;}.cls-13{fill:#ade555;}.cls-14{fill:#637f91;}.cls-15{fill:#534741;}.cls-16{fill:#754c24;}.cls-17{fill:#efad6c;}.cls-18,.cls-25,.cls-26,.cls-27,.cls-28,.cls-29,.cls-30,.cls-31,.cls-32,.cls-33,.cls-34,.cls-35,.cls-36,.cls-37,.cls-38,.cls-39,.cls-40,.cls-41,.cls-42,.cls-43{fill:#fbb03b;}.cls-19{fill:#f9a02b;}.cls-20{fill:#ce6905;}.cls-21{fill:#ba5a0c;}.cls-22{fill:#b75c09;}.cls-23{fill:#99470a;}.cls-24{fill:#dd8d57;stroke:#fbb03b;stroke-width:0.6px;}.cls-25,.cls-26,.cls-27,.cls-28,.cls-29,.cls-30,.cls-31,.cls-32,.cls-33,.cls-34,.cls-35,.cls-36,.cls-37,.cls-38,.cls-39,.cls-40,.cls-41,.cls-42,.cls-43{stroke:#dd8d57;}.cls-25{stroke-width:0.62px;}.cls-26{stroke-width:0.63px;}.cls-27{stroke-width:0.64px;}.cls-28{stroke-width:0.65px;}.cls-29{stroke-width:0.65px;}.cls-30{stroke-width:0.65px;}.cls-31{stroke-width:0.65px;}.cls-32{stroke-width:0.65px;}.cls-33{stroke-width:0.61px;}.cls-34{stroke-width:0.63px;}.cls-35{stroke-width:0.64px;}.cls-36{stroke-width:0.64px;}.cls-37{stroke-width:0.64px;}.cls-38{stroke-width:0.65px;}.cls-39{stroke-width:0.65px;}.cls-40{stroke-width:0.65px;}.cls-41{stroke-width:0.65px;}.cls-42{stroke-width:0.65px;}.cls-43{stroke-width:0.65px;}.cls-44,.cls-45,.cls-46{fill:#427773;}.cls-44,.cls-52,.cls-56{opacity:0.3;}.cls-45{opacity:0.45;}.cls-47{fill:#7a1c23;}.cls-48{fill:#c69c6d;}.cls-49{fill:#a67c52;}.cls-51{fill:#d4145a;}.cls-52,.cls-56{fill:#6abedb;}.cls-52{stroke-width:0.4px;}.cls-53,.cls-54{fill:#b3b3b3;}.cls-54{opacity:0.7;}.cls-55{fill:#662d91;}.cls-56{stroke-width:0.4px;}.cls-57{fill:#d8c4ad;}.cls-58{fill:#4a7f62;}</style></defs><rect class="cls-1" x="74.4" y="31.7" width="936" height="657" rx="32.03"/><rect class="cls-2" x="102.38" y="442.12" width="441.04" height="221.32"/><rect class="cls-2" x="543.42" y="442.12" width="441.04" height="221.32"/><rect class="cls-3" x="254.76" y="466.68" width="125.37" height="26.79" rx="11.8"/><rect class="cls-3" x="701.25" y="466.68" width="125.37" height="26.79" rx="11.8"/><path class="cls-4" d="M101.8,632.88s6.72-55.38,51.31-38.9c0,0,15.27-62,63.52-21.75,0,0,55.49-52.92,73.29,15.82,0,0,71.46-32.3,66,41.54,0,0,67.19-26.38,57.42,32.3l-311,1.55"/><rect class="cls-2" x="102.38" y="56.96" width="882.08" height="166.76"/><rect class="cls-2" x="101.09" y="249.54" width="882.08" height="166.76"/><path class="cls-5" d="M378.77,553c-2.83-.92-6.33-2.75-7.85-6.37a.6.6,0,0,1,.94-.68,93.1,93.1,0,0,0,7.44,6A.59.59,0,0,1,378.77,553Z"/><path class="cls-5" d="M380.32,616.22s85.85-35.76,106.82-32.34C505.91,587,387.92,618.19,380.32,616.22Z"/><path class="cls-6" d="M379.94,615.59s94.32-26.79,125.6-14.82S394.82,621.22,379.94,615.59Z"/><path class="cls-5" d="M374.69,615.89s80.46-10.83,97.64-3.64C487.71,618.69,380.77,619.09,374.69,615.89Z"/><path class="cls-6" d="M378.1,619.35s54.4-45.54,78.09-45.8S389.35,619.18,378.1,619.35Z"/><path class="cls-7" d="M377.38,633.49l-.08-.15a14,14,0,0,0,8.82-17.48,17.27,17.27,0,0,0-19.7-11.81,15.06,15.06,0,0,0-4.69,1.81c-1.72.53-12.54,3.88-27.92,8.71-14.32,4.5-27.57,6.69-45.25,14.39-40.12,17.47-91.12,30.15-93.87,33.68-2.93,3.77,79.61-21.66,131.37-22.07C369.49,640.23,377.38,633.49,377.38,633.49Z"/><g class="cls-8"><path class="cls-9" d="M316.42,619.46S316,631.61,324,640.6"/><path class="cls-9" d="M328.31,616.21s2,10.61,11,24"/><path class="cls-9" d="M343,611.69s2.51,19.18,14.19,27.09"/><path class="cls-9" d="M354,608.26s5.56,16.83,15.81,28.2"/><path class="cls-9" d="M300.75,624.21a69.05,69.05,0,0,0,6.47,17.41"/><path class="cls-9" d="M284.7,630.61a40.5,40.5,0,0,0,4.89,13.15"/><path class="cls-9" d="M269.74,636.57a25.29,25.29,0,0,0,3.49,9.85"/><path class="cls-9" d="M254.71,642s-.37,2.23,3.27,7.3"/><path class="cls-9" d="M239.72,647.1s.77,5,4.21,4.87"/><path class="cls-9" d="M221.16,652.88s.65,2.93,2.36,4"/></g><path class="cls-10" d="M381.93,541.38s37.93-38.19,81.24,6.34,28.5,74.15,28.5,74.15S487,690.4,404.94,651.48,366,565.31,381.93,541.38Z"/><path class="cls-11" d="M374.9,617.11s34.5,33.37,66.19,33.09S374.9,617.11,374.9,617.11Z"/><path class="cls-5" d="M370.36,570.85c1.2-7.55,6-24.17,25.33-32a.54.54,0,0,1,.61.86c-4.88,5.38-20.17,22.54-24.95,31.46A.53.53,0,0,1,370.36,570.85Z"/><path class="cls-5" d="M377.85,551.83A29.47,29.47,0,0,1,382.29,528a1,1,0,0,1,1.79.78c-1.36,5.77-3.63,16-4.29,22.94A1,1,0,0,1,377.85,551.83Z"/><path class="cls-5" d="M380.42,553.42a20.16,20.16,0,0,1-16.77-3.95.61.61,0,0,1,.54-1.08,132.57,132.57,0,0,0,16.19,3.82A.61.61,0,0,1,380.42,553.42Z"/><path class="cls-5" d="M403.67,644.47s90.44-21.67,110.6-15C532.32,635.53,410.86,647.63,403.67,644.47Z"/><path class="cls-6" d="M403.39,643.79s97.39-11.46,126.36,5.32S417.19,651.72,403.39,643.79Z"/><path class="cls-5" d="M398.16,643.25s81.16,2.09,97,11.92C509.3,664,403.65,647.38,398.16,643.25Z"/><path class="cls-6" d="M401,647.21s60.95-36.31,84.37-32.81S412.12,648.83,401,647.21Z"/><path class="cls-7" d="M398,661.06l-.06-.16A14,14,0,0,0,409.45,645a17.26,17.26,0,0,0-17.57-14.79,15.14,15.14,0,0,0-4.92,1c-1.78.26-13,1.84-28.95,4.17-14.85,2.16-28.28,2.22-47,7-42.38,10.87-94.76,15.29-98,18.33-3.49,3.26,82-8.73,133.21-.91C389.16,666.46,398,661.06,398,661.06Z"/><g class="cls-8"><path class="cls-9" d="M340.07,637.52s-2.39,11.93,4.15,22.08"/><path class="cls-9" d="M352.32,636.2s.33,10.81,7.06,25.47"/><path class="cls-9" d="M367.55,634.07s-.58,19.34,9.69,29"/><path class="cls-9" d="M378.93,632.44s2.81,17.49,11.13,30.35"/><path class="cls-9" d="M323.84,639.72a69,69,0,0,0,3.63,18.22"/><path class="cls-9" d="M307,643.49a40.44,40.44,0,0,0,2.73,13.76"/><path class="cls-9" d="M291.26,647a25.35,25.35,0,0,0,1.88,10.28"/><path class="cls-9" d="M275.56,650s-.72,2.14,2.06,7.72"/><path class="cls-9" d="M260,652.63s0,5.06,3.38,5.47"/><path class="cls-9" d="M240.7,655.38s.18,3,1.7,4.35"/></g><path class="cls-12" d="M592.28,569.57s-2.91-33.12,3.5-32.31,5.38,2.84,5.38,2.84l-4.74,28.5Z"/><path class="cls-6" d="M593,661.87s-41.06-3.86-47.82-53.45C538,556.08,594.42,564,594.42,564s48.06-47.32,57.73,31.85C661.18,669.78,616.5,663.46,593,661.87Z"/><path class="cls-13" d="M558.11,605.91s-.25,28.83,24,39.33C606,655.57,558.11,605.91,558.11,605.91Z"/><path class="cls-14" d="M621.31,295.12A75.48,75.48,0,0,0,626,324.45l24.37,63.35c6.35,16.5,18.08,26.67,30.78,26.67h48.74c12.69,0,24.42-10.17,30.77-26.67l24.37-63.35a74.8,74.8,0,0,0,4.76-26.67"/><rect class="cls-14" x="611.65" y="286.63" width="185.9" height="21.49" rx="8.7"/><path class="cls-15" d="M937.67,574.32s11.31-27,16-23.71,3,4.42,3,4.42l-15.37,20.23Z"/><path class="cls-10" d="M903,646.17S870,630,885.08,588.6C901,545,944.16,568.39,944.16,568.39s54.28-11.31,29.34,54.27C950.19,683.92,920.63,657.05,903,646.17Z"/><path class="cls-11" d="M962.09,616.09s.59,25.36-20.63,34.9C920.61,660.38,962.09,616.09,962.09,616.09Z"/><path class="cls-12" d="M795.47,569.57s2.91-33.12-3.5-32.31-5.38,2.84-5.38,2.84l4.74,28.5Z"/><path class="cls-6" d="M794.76,661.87s41.06-3.86,47.82-53.45c7.14-52.34-49.25-44.46-49.25-44.46s-48.06-47.32-57.73,31.85C726.57,669.78,771.25,663.46,794.76,661.87Z"/><path class="cls-13" d="M829.64,605.91s.25,28.83-24,39.33C781.76,655.57,829.64,605.91,829.64,605.91Z"/><path class="cls-15" d="M658.92,570.33s.66-32.53,6.81-31.06,4.93,3.33,4.93,3.33l-7.61,27.22Z"/><path class="cls-10" d="M652.46,658.87s-40.75-3.26-42.1-52.22c-1.42-51.67,52.84-45.1,52.84-45.1s51.52-33.93,52.57,44.12C716.76,678.59,675.17,662.9,652.46,658.87Z"/><path class="cls-11" d="M701.29,603.55s11,26-7,44.55C676.51,666.35,701.29,603.55,701.29,603.55Z"/><path class="cls-7" d="M873.61,572.7S890.38,576,899.92,589c7.8,10.69,17.25,22.05,13,39.1-9.32,37.74-43.15,33.46-43.15,33.46s-40.12,11.12-53.88-30.05c-10.95-32.75,2.24-46.91,22.19-55.11C843.25,574.33,870.24,569.84,873.61,572.7Z"/><path class="cls-16" d="M850.65,576.18s4.52-2.54,7.4-1S850,579.35,850.65,576.18Z"/><path class="cls-17" d="M897.48,601.79s-4.59-18.26-21.66-20.9C859,578.29,897.48,601.79,897.48,601.79Z"/><path class="cls-7" d="M738.11,571.43s16.77,3.26,26.31,16.33c7.8,10.7,17.25,22,13,39.1-9.32,37.74-43.16,33.46-43.16,33.46s-40.11,11.12-53.88-30.05c-10.94-32.75,2.24-46.91,22.2-55.11C707.75,573.05,734.74,568.56,738.11,571.43Z"/><path class="cls-16" d="M715.14,574.9s4.53-2.54,7.41-1S714.47,578.08,715.14,574.9Z"/><path class="cls-17" d="M762,600.52s-4.59-18.27-21.66-20.91C723.54,577,762,600.52,762,600.52Z"/><rect class="cls-18" x="710.72" y="304.31" width="185.57" height="113.74"/><polygon class="cls-19" points="710.72 304.31 860.93 268.22 896.28 304.31 710.72 304.31"/><ellipse class="cls-20" cx="735.12" cy="382.13" rx="7.62" ry="6.21"/><ellipse class="cls-20" cx="784.08" cy="363.19" rx="6.73" ry="5.28"/><ellipse class="cls-21" cx="784.08" cy="364.75" rx="4.57" ry="3.73"/><ellipse class="cls-21" cx="733.1" cy="382.79" rx="5.6" ry="4.56"/><ellipse class="cls-20" cx="877.32" cy="314.77" rx="6.46" ry="5.26"/><ellipse class="cls-21" cx="878.46" cy="315.59" rx="3.87" ry="4.75" transform="translate(326.72 1068.5) rotate(-73.53)"/><ellipse class="cls-20" cx="745.81" cy="316.27" rx="5.26" ry="6.46" transform="translate(-19.13 582.96) rotate(-42.2)"/><ellipse class="cls-21" cx="745.97" cy="317.67" rx="3.87" ry="4.75" transform="translate(-63.95 355.3) rotate(-25.73)"/><ellipse class="cls-20" cx="805.81" cy="322.43" rx="5.28" ry="6.73" transform="translate(114.86 847.68) rotate(-59.05)"/><ellipse class="cls-21" cx="805.81" cy="322.98" rx="3.73" ry="4.57" transform="translate(114.4 847.95) rotate(-59.05)"/><ellipse class="cls-22" cx="845.55" cy="287.57" rx="5.28" ry="6.73" transform="translate(164.06 864.83) rotate(-59.05)"/><ellipse class="cls-23" cx="844.75" cy="288.9" rx="3.73" ry="4.57" transform="translate(162.53 864.79) rotate(-59.05)"/><ellipse class="cls-20" cx="867.29" cy="367.12" rx="5.26" ry="6.46" transform="translate(-21.81 677.74) rotate(-42.2)"/><ellipse class="cls-21" cx="867.44" cy="368.52" rx="3.87" ry="4.75" transform="translate(-73.98 413.07) rotate(-25.73)"/><ellipse class="cls-22" cx="804.05" cy="293.59" rx="6.73" ry="5.28" transform="translate(-24.57 508.25) rotate(-34.58)"/><ellipse class="cls-23" cx="803.5" cy="292.79" rx="4.57" ry="3.73" transform="translate(-24.22 507.8) rotate(-34.58)"/><ellipse class="cls-20" cx="822.38" cy="397.59" rx="5.28" ry="6.73" transform="translate(-53.91 655.46) rotate(-42.2)"/><ellipse class="cls-21" cx="824.06" cy="398.63" rx="3.73" ry="4.57" transform="translate(-54.17 656.87) rotate(-42.2)"/><path class="cls-24" d="M317.7,277s37.54-.2,70.86,1.08c40.13,1.55,82.68,10.19,87.12,11.9,8.12,3.12,13.4,11.24,12.59,16.12s-1.1,5.9-4.35,14-4.81,22.56-.75,29.05S498,393,486.24,399.94s-32.91,9.34-32.91,9.34L405,412.53,317.26,415c-54,1.5-109.31,1.75-163.22-2.56a7,7,0,0,1-2.22-.42c-5.12-2.15-8.7-16.43-9.93-21.28-2.29-9-2.85-23.51.83-32.6,3.6-8.92,7-19.35,4.8-29.16-1.15-5.11-3.25-8-6.31-12.15-3.21-4.38-3.44-6.44-2.17-12.16s3.9-9.18,10.6-11.83c3.34-1.32,9.83-2.37,13.36-1.79.81.13,1.64.23,2.46.3,7.28.59,15.53-3.82,22.75-4a373.86,373.86,0,0,1,61.08-9C273.44,276.86,296.16,277.24,317.7,277Z"/><path class="cls-25" d="M174.28,291.49l4.48-1.34s-2.71,60.76-2.5,64.47a43.41,43.41,0,0,1-.3,8.19l.52,9.65L176,382.72l-4.59,30.87-1,0,1.71-11.42,1.71-18.87.63-13.48L174,355.88Z"/><path class="cls-26" d="M190.65,288.2l4.47-1.38s-2.64,62.74-2.43,66.57a46.91,46.91,0,0,1-.29,8.46l.53,10-.51,10.59-4.56,31.87-1,0,1.7-11.78L190.24,383l.62-13.92-.45-14.37Z"/><path class="cls-27" d="M204.87,285.43l4.48-1.41s-2.59,64.5-2.38,68.45a49,49,0,0,1-.28,8.69l.53,10.24-.49,10.89-4.53,32.77-1,0,1.69-12.11,1.67-20,.61-14.3-.46-14.78Z"/><path class="cls-28" d="M219.44,282.06l4.47-1.46s-2.52,66.57-2.3,70.65a52.19,52.19,0,0,1-.28,9l.55,10.57L221.39,382l-4.49,33.81-1,0,1.68-12.5,1.65-20.67.59-14.77-.47-15.25Z"/><path class="cls-29" d="M237.39,280.21l3.44-1.12a.51.51,0,0,1,.66.5c-.27,7.23-2.47,66.46-2.26,70.3a53,53,0,0,1-.28,9V359l.55,10.56v.05L239,380.83a.06.06,0,0,1,0,0l-4.42,33.52a.51.51,0,0,1-.53.44h0a.51.51,0,0,1-.48-.57l1.6-12v0l1.64-20.77.59-14.83v0l-.48-15.31.1-70.58A.51.51,0,0,1,237.39,280.21Z"/><path class="cls-30" d="M254.26,278.72l1.59-.52a1.51,1.51,0,0,1,2,1.49c-.43,11.53-2.41,65.34-2.21,69a52.92,52.92,0,0,1-.28,9l.56,10.65-.49,11.33-4.49,34.07-1,0,1.67-12.6,1.65-20.83.59-14.88-.48-15.36.09-70.23A1.18,1.18,0,0,1,254.26,278.72Z"/><path class="cls-31" d="M267.79,278.85l4.48-1.46s-2.52,66.68-2.3,70.76a52.35,52.35,0,0,1-.28,9l.55,10.59L269.75,379l-4.49,33.87-1,0,1.67-12.52,1.65-20.71.59-14.79-.47-15.28Z"/><path class="cls-32" d="M282.44,278.53l4.48-1.47s-2.51,67.12-2.29,71.23a53.08,53.08,0,0,1-.28,9l.56,10.65-.49,11.34-4.48,34.09-1,0,1.67-12.6,1.65-20.85.59-14.89-.48-15.37Z"/><path class="cls-33" d="M456.36,286.08l-4.51-1.18s4.61,59.81,4.51,63.48a42.68,42.68,0,0,0,.56,8.06l-.21,9.52.83,10.1,5.56,30.29,1-.07L462,395.08l-2.3-18.54-1.05-13.27V349.54Z"/><path class="cls-34" d="M439.9,283.49l-4.51-1.25s4.61,63.37,4.51,67.26a47.83,47.83,0,0,0,.56,8.54l-.22,10.09.84,10.7,5.56,32.09,1-.07L445.58,399l-2.3-19.66-1-14.05V350.73Z"/><path class="cls-35" d="M425.59,281.88l-4.51-1.28s4.61,64.37,4.51,68.31a49.37,49.37,0,0,0,.56,8.68l-.21,10.25.83,10.87,5.56,32.59,1-.07-2.07-12.05-2.3-20-1.05-14.28V350.17Z"/><path class="cls-36" d="M410.93,281.21l-4.51-1.29S411,345,410.93,349a50.4,50.4,0,0,0,.56,8.77l-.22,10.36.84,11,5.56,32.95,1-.07-2.07-12.19-2.3-20.18-1.05-14.43V350.25Z"/><path class="cls-37" d="M393.28,280l-4.52-1.3s4.61,65.8,4.52,69.84a50.31,50.31,0,0,0,.56,8.87l-.22,10.48.84,11.11L400,412.37l1-.07L399,400l-2.3-20.41L395.6,365V349.86Z"/><path class="cls-38" d="M376.82,278.55l-4.52-1.32s4.61,66.87,4.52,71a52.06,52.06,0,0,0,.56,9l-.22,10.65.83,11.29L383.55,413l1-.08-2.06-12.52-2.3-20.74-1.06-14.83V349.5Z"/><path class="cls-39" d="M362.51,278.55,358,277.23s4.61,67.06,4.52,71.17a52.18,52.18,0,0,0,.56,9l-.22,10.68.84,11.33,5.55,34,1-.07-2.06-12.56-2.3-20.8-1.06-14.87v-15.4Z"/><path class="cls-40" d="M347.85,278.56l-4.52-1.33s4.61,67.39,4.52,71.52a52.85,52.85,0,0,0,.56,9.09l-.22,10.73L349,380l5.55,34.12,1-.07-2.06-12.62-2.3-20.9-1.06-15V350.06Z"/><path class="cls-41" d="M297,278.43l1.56-.6a1.52,1.52,0,0,1,2.06,1.4c.14,11.62.83,65.85,1.21,69.52a54.52,54.52,0,0,1,.18,9.11l1.07,10.69.08,11.41-2.79,34.49h-1l1-12.75.61-21-.15-15-1.24-15.43-3.38-70.65A1.18,1.18,0,0,1,297,278.43Z"/><path class="cls-42" d="M310.93,278.59l3.38-1.29a.5.5,0,0,1,.68.46c.09,7.22.77,66.33,1.17,70.15a53.12,53.12,0,0,1,.17,8.95.14.14,0,0,0,0,.09l1.06,10.49v.05l.07,11.24v0l-2.79,33.6a.52.52,0,0,1-.5.47h0a.51.51,0,0,1-.51-.55l1-12v0l.64-20.77-.14-14.8v0L314,349.38l-3.34-70.3A.51.51,0,0,1,310.93,278.59Z"/><path class="cls-43" d="M325.61,278.37l3.38-1.29a.5.5,0,0,1,.68.46c.09,7.22.78,66.36,1.17,70.18a53.26,53.26,0,0,1,.17,9v.09l1.06,10.49s0,0,0,.05l.06,11.24v.05l-2.78,33.62a.51.51,0,0,1-.5.46h0a.5.5,0,0,1-.51-.54l1-12.05v0l.63-20.78-.13-14.81v0l-1.23-15.24-3.34-70.34A.51.51,0,0,1,325.61,278.37Z"/><path class="cls-44" d="M162.05,282.37s-36.41,7.84-28.29,38.1c1.4,36.22-.69,66.39,4.56,80.4s17,15.4,17,15.4l64.57,2.53s165.92-1.73,171.48-2.53,58.63-2,60.47-2.68,34.09-6.37,35.21-7.24S503,394,503,387.3s-8.16-60.07-3.71-69.72S480.44,282.31,458,279.92s-115.74-8.32-128.62-8.32-79.44,1.86-79.44,1.86Z"/><path class="cls-45" d="M498.07,337.55c.07.81.14,1.62.19,2.42q.53,8.41,1.48,16.8c.08.74,10.62,3.31,11.83,3.7,4.13,1.35,8.25,2.77,12.31,4.33,18.58,7.1,36.89,17.47,48.35,34.23-.68-1,.33-4.06.66-5.07a19,19,0,0,1,2.32-4.72c3.77-5.67,9.75-9.7,13.43-15.52a19.68,19.68,0,0,0,3-10.08c.17-4.22-.34-8.77,1.74-12.63l2.08,1c1.16-5.55-2.49-10.87-3.7-16.41-1.62-7.37,1.12-14.93,4.18-21.82s6.57-13.91,6.56-21.44a6.15,6.15,0,0,0-.47-2.73c-1.26-2.59-5-2.67-7.68-1.72-6.35,2.23-10.92,7.66-16,12-12.11,10.31-27.9,15-43.19,19.35l-32.89,9.43c-2.08.6-4.22.54-4.38,3A39.15,39.15,0,0,0,498.07,337.55Z"/><path class="cls-46" d="M510.35,354.88a.34.34,0,0,0-.16.65c10.85,4.11,53.61,20.5,55.62,24.82,2.31,5,4,8.26,4,8.26l2.64-11.23-49.2-21.13Z"/><path class="cls-46" d="M512.41,340.4a.5.5,0,0,0,.08,1c15.45.76,72.62,3.62,74.64,4.82s-2.47-13.74-3.28-16.33a.49.49,0,0,0-.51-.34c-4.49.37-45.91,3.88-48.52,5.29C532.75,335.93,519.13,339,512.41,340.4Z"/><path class="cls-46" d="M510.88,333.32c1.43,1.55,85.25-23.55,84.49-34.54,0,0-77.93,30.77-79.61,30.71S510.88,333.32,510.88,333.32Z"/><path class="cls-47" d="M505,327.88s-7.13.32-7.1,3.77,1.89,25.12,1.89,25.12a15.32,15.32,0,0,0,4.12,1.59C506.93,359.22,506,329.88,505,327.88Z"/><path class="cls-14" d="M548,135.58a56.63,56.63,0,0,0,3.53,21.95l18.24,47.41c4.75,12.35,13.53,19.95,23,19.95h36.47c9.5,0,18.28-7.6,23-19.95l18.24-47.41a56.11,56.11,0,0,0,3.56-19.95"/><rect class="cls-14" x="540.78" y="129.23" width="139.12" height="16.08" rx="6.51"/><rect class="cls-48" x="659.78" y="92.49" width="264.05" height="97.41" rx="25.75"/><rect class="cls-49" x="672.65" y="104.14" width="236.73" height="69.7" rx="25.66"/><ellipse class="cls-50" cx="760.22" cy="182.63" rx="24.03" ry="32.96"/><ellipse class="cls-50" cx="696.67" cy="181.4" rx="24.03" ry="32.96"/><ellipse class="cls-50" cx="888.12" cy="181.36" rx="24.03" ry="32.96"/><ellipse class="cls-50" cx="824.17" cy="181.4" rx="24.03" ry="32.96"/><rect class="cls-48" x="660.88" y="185.66" width="260.99" height="8.47" rx="4.23"/><path class="cls-49" d="M727.7,194.14a11.84,11.84,0,0,1-1.19,3.68l-10.7,20.47a9.72,9.72,0,0,1-8.53,5.43h-21.4a9.72,9.72,0,0,1-8.52-5.43l-10.7-20.47a11.58,11.58,0,0,1-1.19-3.68Z"/><path class="cls-49" d="M791.33,194.06a11.26,11.26,0,0,1-1.19,3.68l-10.7,20.47a9.7,9.7,0,0,1-8.52,5.43h-21.4a9.7,9.7,0,0,1-8.52-5.43l-10.7-20.47a11.26,11.26,0,0,1-1.19-3.68Z"/><path class="cls-49" d="M854.43,194.13a11.67,11.67,0,0,1-1.19,3.68l-10.7,20.47a9.72,9.72,0,0,1-8.53,5.43h-21.4a9.72,9.72,0,0,1-8.52-5.43l-10.7-20.47a11.42,11.42,0,0,1-1.19-3.68Z"/><path class="cls-49" d="M919.23,194.13a11.81,11.81,0,0,1-1.19,3.69l-10.7,20.46a9.71,9.71,0,0,1-8.52,5.44H877.41a9.71,9.71,0,0,1-8.52-5.44l-10.7-20.46a11.81,11.81,0,0,1-1.19-3.69Z"/><rect class="cls-48" x="770.84" y="82.46" width="40.35" height="13.3" rx="4.1"/><path class="cls-51" d="M308.08,218.45H262.52c-12,0-21.79-7-21.79-15.68v-50.7c0-8.66-2.91-17.64,9.13-17.64,4.36.23,8.58.5,12.89,1a28.19,28.19,0,0,0,7.05-.09c2.21-.28,4.38-.71,6.61-.89,3.64-.28,7.44-.06,11.09-.07a26.4,26.4,0,0,1,4.28.39,27.32,27.32,0,0,0,3.87.69c2.17.05,4.16-.73,6.27-.92a32.63,32.63,0,0,1,7.72.43,13.34,13.34,0,0,0,2.6.27,40.6,40.6,0,0,0,5.57-1.06,8.39,8.39,0,0,1,1-.13,31.31,31.31,0,0,1,5.64.34c8,1.08,5.44,9,5.44,17.64v50.7C329.88,211.43,320.12,218.45,308.08,218.45Z"/><rect class="cls-52" x="236.21" y="125.19" width="97.6" height="97.6" rx="21.09"/><rect class="cls-53" x="237.57" y="114.27" width="95.55" height="13.79" rx="5"/><path class="cls-54" d="M321.7,163.22c0,.46.67,1.48.84,1.94a15.8,15.8,0,0,1,.7,2.53,25.39,25.39,0,0,1,.34,5.37,204.21,204.21,0,0,1-1.88,21c-.43,3.32-1,6.81-2.64,9.77a11.62,11.62,0,0,1-5.93,4.83c-5.16,2.12-11.73,4-17.23,2.11.71.25,4.79-2.55,5.58-3a43.55,43.55,0,0,0,4.73-2.84,23.83,23.83,0,0,0,7.72-8.61c2.62-5.22,3.67-11.1,5.28-16.66A82.21,82.21,0,0,0,321.7,163.22Z"/><path class="cls-55" d="M197.41,219.28H151.63c-12.1,0-21.9-7.06-21.9-15.76v-51c0-8.7-2.92-17.73,9.17-17.73,4.38.24,8.63.5,12.95,1a28.51,28.51,0,0,0,7.09-.09c2.22-.28,4.4-.72,6.64-.89,3.66-.28,7.48-.07,11.15-.07a26.75,26.75,0,0,1,4.3.39,28.82,28.82,0,0,0,3.89.69c2.18.05,4.18-.74,6.3-.93a33,33,0,0,1,7.76.44,13.44,13.44,0,0,0,2.61.27,41,41,0,0,0,5.6-1.07c.33-.06.66-.1,1-.13a31.64,31.64,0,0,1,5.67.34c8,1.09,5.46,9,5.46,17.73v51C219.31,212.22,209.51,219.28,197.41,219.28Z"/><rect class="cls-56" x="125.19" y="125.56" width="98.08" height="98.08" rx="21.2"/><rect class="cls-53" x="126.55" y="114.58" width="96.02" height="13.86" rx="5.02"/><path class="cls-54" d="M136.62,165.38c0,.45-.68,1.47-.85,1.94a15.92,15.92,0,0,0-.7,2.54,26.41,26.41,0,0,0-.35,5.4,209,209,0,0,0,1.89,21.06c.44,3.34,1,6.84,2.66,9.82a11.75,11.75,0,0,0,6,4.86c5.18,2.12,11.79,4,17.32,2.11-.72.25-4.82-2.55-5.62-3a45.57,45.57,0,0,1-4.75-2.85,24.09,24.09,0,0,1-7.76-8.66c-2.63-5.24-3.69-11.15-5.3-16.74A82.91,82.91,0,0,1,136.62,165.38Z"/><path class="cls-57" d="M357.45,93a67.5,67.5,0,0,0,6.46,32l33.39,69.18c8.7,18,24.77,29.12,42.16,29.12h66.78c17.4,0,33.47-11.1,42.16-29.12L581.79,125a67.22,67.22,0,0,0,6.53-29.12"/><rect class="cls-58" x="344.22" y="83.73" width="254.7" height="23.46" rx="10.65"/></svg>