<svg id="Layer_1" data-name="Layer 1" xmlns="http://www.w3.org/2000/svg" viewBox="0 0 289.32 92.38"><defs><style>.cls-1{fill:#183a37;}</style></defs><path class="cls-1" d="M25.79,47.31a12.11,12.11,0,0,1,4.29.74,9.45,9.45,0,0,1,3.37,2.17,10,10,0,0,1,2.21,3.51,13.16,13.16,0,0,1,.79,4.74,8.5,8.5,0,0,1-.06,1.11,1.7,1.7,0,0,1-.22.7.82.82,0,0,1-.42.36,1.8,1.8,0,0,1-.67.11H19.87c.17,2.52.85,4.38,2,5.56a6.33,6.33,0,0,0,4.7,1.78,7.91,7.91,0,0,0,2.48-.34A11.4,11.4,0,0,0,30.92,67c.52-.27,1-.52,1.37-.74a2.23,2.23,0,0,1,1.14-.34,1.35,1.35,0,0,1,.62.14,1.5,1.5,0,0,1,.46.41l1.72,2.16A9.54,9.54,0,0,1,34,70.57a12.37,12.37,0,0,1-2.56,1.25,13.56,13.56,0,0,1-2.71.66,19.09,19.09,0,0,1-2.68.19,13.08,13.08,0,0,1-4.77-.85,10.61,10.61,0,0,1-3.84-2.52,11.73,11.73,0,0,1-2.57-4.13A15.78,15.78,0,0,1,14,59.48a13.59,13.59,0,0,1,.82-4.75,11.29,11.29,0,0,1,2.34-3.86,10.84,10.84,0,0,1,3.72-2.6A12.21,12.21,0,0,1,25.79,47.31Zm.12,4.25A5.45,5.45,0,0,0,21.86,53,7.16,7.16,0,0,0,20,57.17H31.12A7.3,7.3,0,0,0,30.81,55a5.06,5.06,0,0,0-1-1.79A4.64,4.64,0,0,0,28.22,52,5.54,5.54,0,0,0,25.91,51.56Z"/><path class="cls-1" d="M60.57,72.31H57.91a2.85,2.85,0,0,1-1.32-.25,1.61,1.61,0,0,1-.72-1l-.53-1.75a22.52,22.52,0,0,1-1.84,1.48,10.83,10.83,0,0,1-1.86,1.06,9.17,9.17,0,0,1-2,.65,11.81,11.81,0,0,1-2.4.22,9.45,9.45,0,0,1-2.88-.42A6.3,6.3,0,0,1,42.05,71a5.73,5.73,0,0,1-1.47-2.09A7.53,7.53,0,0,1,40.05,66a5.69,5.69,0,0,1,.73-2.75,6.88,6.88,0,0,1,2.44-2.46A15.49,15.49,0,0,1,47.75,59a29.15,29.15,0,0,1,7-.72V56.8a5.49,5.49,0,0,0-1-3.69,3.8,3.8,0,0,0-3-1.2,7.45,7.45,0,0,0-2.4.34,9.67,9.67,0,0,0-1.67.76c-.47.28-.91.53-1.31.75A2.6,2.6,0,0,1,44,54.1a1.77,1.77,0,0,1-1-.31,2.57,2.57,0,0,1-.7-.77l-1.08-1.9a14.65,14.65,0,0,1,10.25-3.89,9.93,9.93,0,0,1,3.85.71,8.12,8.12,0,0,1,2.87,2,8.49,8.49,0,0,1,1.79,3,11.54,11.54,0,0,1,.61,3.84ZM49.05,68.62a8,8,0,0,0,1.68-.17A6.35,6.35,0,0,0,52.18,68a7,7,0,0,0,1.32-.82A11.86,11.86,0,0,0,54.79,66V61.87a23.88,23.88,0,0,0-4.34.33,11.36,11.36,0,0,0-2.79.84,3.46,3.46,0,0,0-1.5,1.18,2.95,2.95,0,0,0,.48,3.72A4,4,0,0,0,49.05,68.62Z"/><path class="cls-1" d="M74.49,72.7a6.5,6.5,0,0,1-4.92-1.81,7,7,0,0,1-1.73-5V52.13H65.35a1.19,1.19,0,0,1-.83-.31,1.21,1.21,0,0,1-.35-.94V48.53l4-.65,1.25-6.72a1.15,1.15,0,0,1,.44-.74,1.4,1.4,0,0,1,.88-.27h3.07v7.76h6.48v4.22H73.77V65.48a2.57,2.57,0,0,0,.58,1.79,1.91,1.91,0,0,0,1.53.65,2.78,2.78,0,0,0,.93-.13,4.89,4.89,0,0,0,.64-.28,5.65,5.65,0,0,0,.5-.27.77.77,0,0,1,.43-.13.67.67,0,0,1,.43.13,2.11,2.11,0,0,1,.36.4L81,70.51a9.11,9.11,0,0,1-3,1.64A11.31,11.31,0,0,1,74.49,72.7Z"/><path class="cls-1" d="M99.59,52.49a1.47,1.47,0,0,1-.5.54,1.26,1.26,0,0,1-.67.16,2.14,2.14,0,0,1-.93-.24l-1.14-.54a10.35,10.35,0,0,0-1.47-.54,7.1,7.1,0,0,0-2-.24,4.59,4.59,0,0,0-2.76.74,2.31,2.31,0,0,0-1,1.94,1.85,1.85,0,0,0,.52,1.34,4.52,4.52,0,0,0,1.37.94,13,13,0,0,0,1.93.74c.72.21,1.45.45,2.21.7s1.49.55,2.21.88a7.62,7.62,0,0,1,1.93,1.25A6,6,0,0,1,100.69,62a5.78,5.78,0,0,1,.51,2.54,8.21,8.21,0,0,1-.65,3.28,7.2,7.2,0,0,1-1.89,2.59,8.85,8.85,0,0,1-3.09,1.71,14.14,14.14,0,0,1-9-.26,13.09,13.09,0,0,1-2.07-1,9.18,9.18,0,0,1-1.66-1.2l1.37-2.25a1.84,1.84,0,0,1,.62-.62,1.68,1.68,0,0,1,.91-.22,1.92,1.92,0,0,1,1,.31c.32.21.7.43,1.14.67a9.08,9.08,0,0,0,1.52.67,6.6,6.6,0,0,0,2.22.32,6,6,0,0,0,1.81-.25,4,4,0,0,0,1.25-.66,2.5,2.5,0,0,0,.72-1,2.91,2.91,0,0,0,.23-1.12,2,2,0,0,0-.52-1.42,4.74,4.74,0,0,0-1.37-1,13.41,13.41,0,0,0-1.94-.73c-.73-.21-1.47-.45-2.23-.71a17.92,17.92,0,0,1-2.23-.9,7.72,7.72,0,0,1-2-1.3,6,6,0,0,1-1.37-1.95,6.83,6.83,0,0,1-.51-2.78,7.08,7.08,0,0,1,.6-2.88,6.84,6.84,0,0,1,1.76-2.39,8.86,8.86,0,0,1,2.91-1.63,12,12,0,0,1,4-.61,12.31,12.31,0,0,1,4.63.84,10.52,10.52,0,0,1,3.48,2.2Z"/><path class="cls-1" d="M120.57,52.49a1.49,1.49,0,0,1-.51.54,1.23,1.23,0,0,1-.67.16,2.1,2.1,0,0,1-.92-.24l-1.14-.54a10.5,10.5,0,0,0-1.48-.54,7,7,0,0,0-1.95-.24,4.59,4.59,0,0,0-2.76.74,2.29,2.29,0,0,0-1,1.94,1.88,1.88,0,0,0,.51,1.34,4.65,4.65,0,0,0,1.37.94,13,13,0,0,0,1.93.74c.72.21,1.46.45,2.21.7s1.49.55,2.21.88a7.62,7.62,0,0,1,1.93,1.25A5.71,5.71,0,0,1,121.66,62a5.78,5.78,0,0,1,.52,2.54,8.21,8.21,0,0,1-.65,3.28,7.22,7.22,0,0,1-1.9,2.59,8.89,8.89,0,0,1-3.08,1.71,14.1,14.1,0,0,1-9-.26,12.31,12.31,0,0,1-2.07-1,9.27,9.27,0,0,1-1.67-1.2l1.37-2.25a1.93,1.93,0,0,1,.62-.62,1.74,1.74,0,0,1,.92-.22,1.91,1.91,0,0,1,1,.31c.33.21.71.43,1.14.67a9.46,9.46,0,0,0,1.52.67,6.68,6.68,0,0,0,2.22.32,6.06,6.06,0,0,0,1.82-.25,3.82,3.82,0,0,0,1.24-.66,2.5,2.5,0,0,0,.72-1,2.74,2.74,0,0,0,.23-1.12,2,2,0,0,0-.51-1.42,4.88,4.88,0,0,0-1.37-1,14,14,0,0,0-2-.73c-.72-.21-1.47-.45-2.23-.71a18.56,18.56,0,0,1-2.23-.9,7.49,7.49,0,0,1-1.94-1.3A5.86,5.86,0,0,1,105,57.6a6.67,6.67,0,0,1-.52-2.78,7.08,7.08,0,0,1,.6-2.88,6.75,6.75,0,0,1,1.77-2.39,8.71,8.71,0,0,1,2.9-1.63,12,12,0,0,1,4-.61,12.27,12.27,0,0,1,4.63.84,10.52,10.52,0,0,1,3.48,2.2Z"/><path class="cls-1" d="M137.1,47.31a12.11,12.11,0,0,1,4.29.74,9.45,9.45,0,0,1,3.37,2.17A10,10,0,0,1,147,53.73a13.16,13.16,0,0,1,.79,4.74,8.5,8.5,0,0,1-.06,1.11,1.7,1.7,0,0,1-.22.7.82.82,0,0,1-.42.36,1.8,1.8,0,0,1-.67.11H131.18c.17,2.52.85,4.38,2,5.56a6.33,6.33,0,0,0,4.7,1.78,7.91,7.91,0,0,0,2.48-.34,11.4,11.4,0,0,0,1.83-.74c.52-.27,1-.52,1.37-.74a2.23,2.23,0,0,1,1.14-.34,1.35,1.35,0,0,1,.62.14,1.5,1.5,0,0,1,.46.41l1.72,2.16a9.54,9.54,0,0,1-2.2,1.93,12.37,12.37,0,0,1-2.56,1.25,13.56,13.56,0,0,1-2.71.66,19.09,19.09,0,0,1-2.68.19,13.08,13.08,0,0,1-4.77-.85,10.61,10.61,0,0,1-3.84-2.52,11.73,11.73,0,0,1-2.57-4.13,15.78,15.78,0,0,1-.94-5.69,13.59,13.59,0,0,1,.82-4.75,11.29,11.29,0,0,1,2.34-3.86,10.84,10.84,0,0,1,3.72-2.6A12.21,12.21,0,0,1,137.1,47.31Zm.12,4.25A5.45,5.45,0,0,0,133.17,53a7.16,7.16,0,0,0-1.87,4.15h11.13a7.3,7.3,0,0,0-.31-2.17,5.06,5.06,0,0,0-1-1.79A4.64,4.64,0,0,0,139.53,52,5.54,5.54,0,0,0,137.22,51.56Z"/><path class="cls-1" d="M152.58,72.31V47.69h3.63a1.45,1.45,0,0,1,1.51,1.08l.41,1.95a12.89,12.89,0,0,1,1.57-1.4,12.11,12.11,0,0,1,1.75-1.08,9.27,9.27,0,0,1,2-.69,10.44,10.44,0,0,1,2.31-.24,8.75,8.75,0,0,1,3.57.68,7.21,7.21,0,0,1,2.61,1.92,8.52,8.52,0,0,1,1.58,3,12.6,12.6,0,0,1,.54,3.78V72.31h-5.93V56.64a5.3,5.3,0,0,0-1-3.49,3.89,3.89,0,0,0-3.13-1.24,6.19,6.19,0,0,0-2.88.7,10.2,10.2,0,0,0-2.55,1.9v17.8Z"/><path class="cls-1" d="M188,72.7A6.5,6.5,0,0,1,183,70.89a7,7,0,0,1-1.73-5V52.13h-2.49a1.19,1.19,0,0,1-.83-.31,1.21,1.21,0,0,1-.35-.94V48.53l4-.65,1.25-6.72a1.15,1.15,0,0,1,.44-.74,1.4,1.4,0,0,1,.88-.27h3.07v7.76h6.48v4.22h-6.48V65.48a2.57,2.57,0,0,0,.58,1.79,1.91,1.91,0,0,0,1.53.65,2.78,2.78,0,0,0,.93-.13,4.89,4.89,0,0,0,.64-.28,5.65,5.65,0,0,0,.5-.27.77.77,0,0,1,.43-.13.67.67,0,0,1,.43.13,2.11,2.11,0,0,1,.36.4l1.78,2.87a9.11,9.11,0,0,1-3,1.64A11.31,11.31,0,0,1,188,72.7Z"/><path class="cls-1" d="M205.65,40.51a3.44,3.44,0,0,1-.31,1.44,3.89,3.89,0,0,1-2,2,3.58,3.58,0,0,1-1.49.3,3.4,3.4,0,0,1-1.45-.3,3.67,3.67,0,0,1-1.19-.8,3.76,3.76,0,0,1-.81-1.18,3.44,3.44,0,0,1-.3-1.44,3.69,3.69,0,0,1,.3-1.48,3.63,3.63,0,0,1,.81-1.2,3.69,3.69,0,0,1,1.19-.81,3.55,3.55,0,0,1,1.45-.3,3.74,3.74,0,0,1,1.49.3,4,4,0,0,1,1.21.81,3.84,3.84,0,0,1,.83,1.2A3.7,3.7,0,0,1,205.65,40.51Zm-.89,7.18V72.31h-5.93V47.69Z"/><path class="cls-1" d="M230.75,72.31h-2.66a2.85,2.85,0,0,1-1.32-.25,1.61,1.61,0,0,1-.72-1l-.53-1.75a20.94,20.94,0,0,1-1.84,1.48,10.83,10.83,0,0,1-1.86,1.06,9.17,9.17,0,0,1-2,.65,11.81,11.81,0,0,1-2.4.22,9.45,9.45,0,0,1-2.88-.42A6.18,6.18,0,0,1,212.24,71a5.64,5.64,0,0,1-1.48-2.09,7.53,7.53,0,0,1-.53-2.92,5.81,5.81,0,0,1,.73-2.75,6.88,6.88,0,0,1,2.44-2.46A15.57,15.57,0,0,1,217.94,59a29,29,0,0,1,7-.72V56.8a5.49,5.49,0,0,0-1.05-3.69,3.8,3.8,0,0,0-3-1.2,7.45,7.45,0,0,0-2.4.34,9.67,9.67,0,0,0-1.67.76c-.47.28-.91.53-1.31.75a2.6,2.6,0,0,1-1.32.34,1.77,1.77,0,0,1-1-.31,2.57,2.57,0,0,1-.7-.77l-1.08-1.9a14.67,14.67,0,0,1,10.25-3.89,9.9,9.9,0,0,1,3.85.71,8.12,8.12,0,0,1,2.87,2,8.49,8.49,0,0,1,1.79,3,11.54,11.54,0,0,1,.61,3.84Zm-11.52-3.69a8,8,0,0,0,1.68-.17,6.35,6.35,0,0,0,1.45-.49,7,7,0,0,0,1.32-.82A11,11,0,0,0,225,66V61.87a23.76,23.76,0,0,0-4.33.33,11.45,11.45,0,0,0-2.8.84,3.46,3.46,0,0,0-1.5,1.18,3,3,0,0,0,.48,3.72A4,4,0,0,0,219.23,68.62Z"/><path class="cls-1" d="M264.21,52.49a1.49,1.49,0,0,1-.51.54,1.23,1.23,0,0,1-.67.16,2.07,2.07,0,0,1-.92-.24L261,52.41a11,11,0,0,0-1.48-.54,7,7,0,0,0-2-.24,4.58,4.58,0,0,0-2.75.74,2.29,2.29,0,0,0-1,1.94,1.88,1.88,0,0,0,.51,1.34,4.65,4.65,0,0,0,1.37.94,13,13,0,0,0,1.93.74c.72.21,1.46.45,2.21.7s1.49.55,2.21.88a7.62,7.62,0,0,1,1.93,1.25A5.86,5.86,0,0,1,265.3,62a5.78,5.78,0,0,1,.52,2.54,8.21,8.21,0,0,1-.65,3.28,7.34,7.34,0,0,1-1.9,2.59,8.89,8.89,0,0,1-3.08,1.71,14.35,14.35,0,0,1-6.7.38,13.8,13.8,0,0,1-2.33-.64,12.58,12.58,0,0,1-2.06-1,9.27,9.27,0,0,1-1.67-1.2l1.37-2.25a1.84,1.84,0,0,1,.62-.62,1.72,1.72,0,0,1,.92-.22,1.91,1.91,0,0,1,1,.31c.33.21.71.43,1.14.67a9.46,9.46,0,0,0,1.52.67,6.68,6.68,0,0,0,2.22.32,5.94,5.94,0,0,0,1.81-.25,3.88,3.88,0,0,0,1.25-.66,2.5,2.5,0,0,0,.72-1,2.91,2.91,0,0,0,.23-1.12,2,2,0,0,0-.52-1.42,4.82,4.82,0,0,0-1.36-1,14,14,0,0,0-1.95-.73c-.73-.21-1.47-.45-2.23-.71a18.56,18.56,0,0,1-2.23-.9,7.72,7.72,0,0,1-1.95-1.3,6,6,0,0,1-1.36-1.95,6.67,6.67,0,0,1-.52-2.78,7.08,7.08,0,0,1,.6-2.88,6.84,6.84,0,0,1,1.76-2.39,8.86,8.86,0,0,1,2.91-1.63,12,12,0,0,1,4-.61,12.31,12.31,0,0,1,4.63.84,10.52,10.52,0,0,1,3.48,2.2Z"/><path class="cls-1" d="M253.76,25.33c1-4,1.75-8.09,2.74-12.1.15-.64.12-1.2-.07-1.24s-.48.43-.63,1.06c-.63,2-1.17,4.05-1.71,6.08-.39,1.4-.7,3-1.06,4.5-.27,1.16-.41,2.86-1.12,3.67-.08.1-.19.16-.27.12-.37-.14-.06-1.3,0-1.74.39-2.64,1-5.34,1.45-8,.34-1.78.51-3.41.85-5.12h0c.13-.59.1-1.1-.09-1.15s-.44.39-.6,1h0c-.63,2-1.16,4-1.71,6.08-.38,1.41-.7,3-1.05,4.51-.28,1.15-.42,2.85-1.12,3.66-.09.1-.19.16-.27.13-.37-.15-.07-1.31,0-1.75.38-2.64,1-5.34,1.45-8,.33-1.75.46-3.36.79-5h0c.16-.63.13-1.19-.07-1.23s-.44.39-.6,1h0v.08h0c-.62,2-1.13,4-1.67,6-.38,1.41-.7,3-1.05,4.51-.28,1.16-.41,2.86-1.12,3.67-.09.1-.19.16-.27.12-.37-.14-.07-1.31,0-1.74.38-2.64,1-5.34,1.45-8,.33-1.78.6-3.39.94-5.1h0c.16-.64.13-1.19-.06-1.24s-.48.43-.64,1.06h0c-.63,2-1.24,4-1.79,6.06-.38,1.4-.7,3-1,4.5-.28,1.16-.42,2.86-1.13,3.67-.08.1-.18.16-.26.12-.37-.14-.07-1.3,0-1.74.39-2.64,1-5.34,1.46-8,.32-1.74.58-3.31.91-5a0,0,0,0,0,0,0c.16-.64.13-1.19-.06-1.24s-.45.39-.61,1h0c-1,4-2,8-2.94,12-.59,2.41-1.57,4.77-1.9,7.24-.16,1.14.16,1.28.79,1.62a3.9,3.9,0,0,1,1.22,1,4.58,4.58,0,0,1,.64,3.58l-8.92,36.26,3.44.85,8.89-36.27.14-.46A4.32,4.32,0,0,1,249.08,34a3.72,3.72,0,0,1,1.54-.33c.72,0,1.07,0,1.46-1.07C252.93,30.28,253.16,27.74,253.76,25.33Z"/><path class="cls-1" d="M237.94,73.57h2.13A1.46,1.46,0,0,0,241.44,72V9.69a1.43,1.43,0,0,0-1.66-1.52,3.12,3.12,0,0,0-1.66.95c-1.7,1.91-2.41,5.55-3.16,8a28.1,28.1,0,0,0-.59,11.55c.36,3.23.66,7.25,2.1,10.16a16.72,16.72,0,0,1,1.18,7V73.57Z"/></svg>